<?xml version="1.0" encoding="utf-8"?>
<!-- Generator: Adobe Illustrator 25.3.1, SVG Export Plug-In . SVG Version: 6.00 Build 0)  -->
<svg version="1.1" id="logo1" xmlns="http://www.w3.org/2000/svg" xmlns:xlink="http://www.w3.org/1999/xlink" x="0px" y="0px"
	 viewBox="0 0 960.5 894.24" style="enable-background:new 0 0 960.5 894.24;" xml:space="preserve">
<style type="text/css">
	.st0{fill:none;}
	.st1{fill:#FFFFFF;}
	.st2{fill:#FFF0DB;}
	.st3{fill:#67331B;}
	.st4{fill:#504223;}
	.st5{fill:#6F2D12;}
	.st6{fill:#54582B;}
</style>
<path id="SVGID_x5F_1_x5F_" class="st0" d="M856.79,453.37C848.96,644.91,687.34,793.83,495.8,786
	c-191.54-7.83-340.46-169.45-332.63-360.99C171,233.47,332.62,84.55,524.16,92.38S864.62,261.83,856.79,453.37z"/>
<text><textPath  xlink:href="#SVGID_x5F_1_x5F_" startOffset="97.5953%">
</textPath>
</text>
<path id="SVGID_x5F_2_x5F_" class="st0" d="M644.75,112.35c174.47,79.43,251.51,285.25,172.08,459.72S531.58,823.58,357.11,744.15
	S105.6,458.9,185.03,284.43S470.28,32.92,644.75,112.35z"/>
<text><textPath  xlink:href="#SVGID_x5F_2_x5F_" startOffset="97.5953%">
<tspan  class="st1" style="font-family:'TimesNewRomanPSMT'; font-size:50.3629px; letter-spacing:250;">the second home cafe		</tspan></textPath>
</text>
<path id="SVGID_x5F_3_x5F_" class="st0" d="M662.53,102.79c-190.17-86.58-414.51-2.6-501.09,187.57s-2.6,414.51,187.57,501.09
	s414.51,2.6,501.09-187.57S852.7,189.37,662.53,102.79z"/>
<text><textPath  xlink:href="#SVGID_x5F_3_x5F_" startOffset="49.535%">
<tspan  class="st1" style="font-family:'TimesNewRomanPSMT'; font-size:54.9794px; letter-spacing:250;">a place to belong</tspan></textPath>
</text>
<g>
	<g>
		<path class="st1" d="M420.01,614.32c6.99-3.94,25.19-8.36,34.76-34.35c2.13-5.77,5.87-16.83,10.24-21.17
			c6.17-6.13,12.02-8.16,20.93-11.05c5.44-1.76,11.46-0.02,15.03,4.45c6.16,7.71,10.89,24.83-13.79,59.2
			c-33.31,46.39-85.64,48.34-81.71,23.95C406.58,628.42,415.2,617.04,420.01,614.32z"/>
		<path class="st1" d="M394.16,633.64c2.52,3.05,7.42,2.01,8.52-1.79c2.38-8.23,8.56-21.03,24.49-28.5
			c17.71-8.3,22.23-24.67,23.36-33.39c0.75-5.75,3.34-11.11,7.48-15.16c5.15-5.04,13.34-10.45,25.34-11.65
			c2.5-0.25,3.55-3.32,1.71-5.02c-7.31-6.77-24.66-16.13-54.4,4.78C393.73,568.86,377.15,613.09,394.16,633.64z"/>
	</g>
	<g>
		<path class="st1" d="M552.43,575.06c6.99,3.94,25.19,8.36,34.76,34.35c2.13,5.77,5.87,16.83,10.24,21.17
			c6.17,6.13,12.02,8.16,20.93,11.05c5.44,1.76,11.46,0.02,15.03-4.45c6.16-7.71,10.89-24.83-13.79-59.2
			c-33.31-46.39-85.64-48.34-81.71-23.95C539,560.96,547.61,572.35,552.43,575.06z"/>
		<path class="st1" d="M526.58,555.75c2.52-3.05,7.42-2.01,8.52,1.79c2.38,8.23,8.56,21.03,24.49,28.5
			c17.71,8.3,22.23,24.67,23.36,33.39c0.75,5.75,3.34,11.11,7.48,15.16c5.15,5.04,13.34,10.45,25.34,11.65
			c2.5,0.25,3.55,3.32,1.71,5.02c-7.31,6.77-24.66,16.13-54.4-4.78C526.14,620.52,509.57,576.3,526.58,555.75z"/>
	</g>
	<path class="st1" d="M518.08,258.17c-3.18,15.51-6.32,31.01-8.9,46.55c-1.3,7.77-2.49,15.54-3.27,23.31
		c-0.23,1.94-0.3,3.88-0.48,5.82c-0.09,1.93-0.04,3.86-0.07,5.78c0.04,1.93,0.2,3.89,0.29,5.83c0.06,0.97,0.1,1.94,0.17,2.92
		l0.25,2.92c1.39,15.58,3.21,31.18,5.09,46.78c1.84,15.6,3.66,31.21,5.39,46.82l1.19,11.72c0.39,3.91,0.78,7.81,1.11,11.73
		c0.33,3.91,0.73,7.82,0.99,11.74c0.26,3.92,0.65,7.83,0.78,11.76c0.18,3.93,0.41,7.85,0.4,11.79l0.04,2.95
		c0.01,0.98,0.04,1.97-0.02,2.96l-0.26,5.95c-0.53,7.83-1.14,15.63-1.76,23.45c-2.42,31.26-6.33,31.13-4.81-0.17l1.17-23.47
		l0.14-5.79c0.05-0.96,0-1.94-0.03-2.91l-0.09-2.92c-0.07-3.88-0.37-7.78-0.62-11.68c-1.06-15.59-2.69-31.2-4.38-46.8
		c-3.2-31.22-7.23-62.4-9.12-93.76l-0.17-2.94c-0.05-0.98-0.05-1.97-0.08-2.95c-0.03-1.97-0.13-3.93-0.11-5.91
		c0.09-1.99,0.1-3.98,0.26-5.96c0.23-1.96,0.41-3.94,0.72-5.89c1.12-7.83,2.63-15.6,4.29-23.36
		C509.62,288.95,513.56,273.52,518.08,258.17z"/>
	<path class="st1" d="M544.52,290.57c-13.03-1.49-22.36-12.61-21.21-25.27c1.21-13.3,12.92-22.85,26.16-21.35
		c13.37,1.52,23.07,13.53,21.28,26.37C569.02,282.76,557.04,292,544.52,290.57z"/>
	<path class="st1" d="M514.39,260.04c-14.17-1.58-23.76-13.84-22.6-26.43c1.12-12.21,12.67-22.12,25.31-21.72
		c12.26,0.39,23.75,11.95,23.24,23.84c-0.1,2.31-1.41,5.09-3.08,6.72c-5.37,5.22-11.04,10.18-16.89,14.87
		C518.24,259.02,515.27,259.66,514.39,260.04z"/>
	<path class="st1" d="M487.74,230.95c1.58,17.62,11.87,27.91,28.54,32.01c-3.61,12.58-13.39,18.82-26.61,17.46
		c-12.07-1.24-21.43-10.25-22.58-21.76C465.78,245.68,473.65,234.77,487.74,230.95z"/>
	<path class="st1" d="M244.51,322.83c3.22-3.37,6.03-7.3,9.73-10.02c80.15-58.84,160.39-117.54,240.62-176.26
		c8.94-6.54,13.01-6.54,21.98,0.03c80.78,59.12,161.55,118.25,242.32,177.39c9.96,7.29,10.56,18.81,1.26,24.29
		c-6.12,3.61-11.6,1.93-16.98-2.03c-26.97-19.85-54.01-39.59-81.02-59.37c-50.87-37.26-101.77-74.48-152.55-111.85
		c-3.23-2.38-5.17-2.16-8.27,0.12c-77.41,56.82-154.9,113.52-232.39,170.25c-10.87,7.96-18.49,6.29-24.72-5.4
		C244.51,327.59,244.51,325.21,244.51,322.83z"/>
	<path class="st1" d="M500.73,439.1c-1.12-4.16-1.75-8.44-1.82-12.75c-0.62-40.74-19.68-66.34-23.92-71.55
		c-0.73-0.9-1.44-1.81-2.15-2.72c-36.7-46.98-123.74-51.26-123.74-51.26c14.47,12.91,17.13,39.2,17.58,45.81
		c0.14,2.06,0.31,4.12,0.6,6.16c7.59,54.96,64.41,68.62,89.77,72c17.87,2.38,34.29,11.17,46,24.87c0.52,0.6,0.79,0.95,0.79,0.95
		L500.73,439.1z M381.66,320.6c0,0,95.95,24.02,110.15,110.22C491.81,430.82,469.65,358.82,381.66,320.6z"/>
	<path class="st1" d="M508.88,499.99c-1.08-1.7-1.96-3.52-2.59-5.43c-5.95-18.08-18.01-26.84-20.63-28.57
		c-0.45-0.3-0.89-0.61-1.34-0.91c-22.9-15.84-62.3-5.63-62.3-5.63c8.25,3.74,13.1,15.09,14.21,17.97c0.35,0.9,0.71,1.79,1.12,2.66
		c11.03,23.45,38.27,21.63,50.05,19.6c8.3-1.43,16.84,0.21,23.97,4.69c0.31,0.2,0.49,0.31,0.49,0.31L508.88,499.99z M439.3,463.73
		c0,0,46.12-2.65,64.45,33.81C503.75,497.54,483.84,468.52,439.3,463.73z"/>
	<path class="st1" d="M548.11,343.67c-22.67,27.91-22.87,72.84-20.77,88.56c0.45,3.4,0.09,6.86-1.06,10.09l-6.99,19.58l1.62,23.35
		c0,0,14.26-45.22,17.78-54.4s9.42-11.3,9.42-11.3s54.88-26.85,65.48-57.94c10.6-31.09,43.1-60.76,43.1-60.76
		C605.82,300.14,571.99,314.27,548.11,343.67z M532.74,430.82c7.77-50.87,80.55-106.69,80.55-106.69
		C571.6,362.29,532.74,430.82,532.74,430.82z"/>
	<path class="st1" d="M599.15,436.47c-46.63-2.12-66.41,71.36-66.41,71.36l-9.52,34.62c0,0,8.81-13.42,14.45-19.78
		c3.19-3.59,7.96-5.83,11.52-7.1c2.53-0.9,5.22-1.29,7.91-1.15c43.93,2.38,68.35-31.63,74.56-44.74
		c6.36-13.42,25.04-19.08,25.04-19.08S645.78,438.59,599.15,436.47z M540.36,509.25c20.16-62.11,102.6-58.64,102.6-58.64
		C562.41,461.2,540.36,509.25,540.36,509.25z"/>
	<path class="st1" d="M357.79,640.43c0,0,7.59,11.65,17.79,17.01h-47.74c0,0-63.59-7.32-66.41-76.58c-2.83-69.25,0-212.68,0-212.68
		l0,0c0-3.96,1.63-7.8,4.68-10.33c2.74-2.27,6.45-3.56,10.51,0.07c2.86,2.56,4.36,6.33,4.36,10.17v203.17
		c0,13.05,3.07,25.98,9.36,37.42C300.05,626.37,319.49,645.12,357.79,640.43z"/>
	<path class="st1" d="M656.1,640.43c0,0-7.59,11.65-17.79,17.01h47.74c0,0,63.59-7.32,66.41-76.58c2.83-69.25,0-212.68,0-212.68l0,0
		c0-3.96-1.63-7.8-4.68-10.33c-2.74-2.27-6.45-3.56-10.51,0.07c-2.86,2.56-4.36,6.33-4.36,10.17v203.17
		c0,13.05-3.07,25.98-9.36,37.42C713.84,626.37,694.4,645.12,656.1,640.43z"/>
</g>
<circle cx="-541.69" cy="439.19" r="412.31"/>
<path id="SVGID_x5F_4_x5F_" class="st0" d="M-188.65,453.37C-196.48,644.91-358.1,793.83-549.64,786
	c-191.54-7.83-340.46-169.45-332.63-360.99c7.83-191.54,169.45-340.46,360.99-332.63S-180.82,261.83-188.65,453.37z"/>
<text><textPath  xlink:href="#SVGID_x5F_4_x5F_" startOffset="97.5953%">
</textPath>
</text>
<path id="SVGID_x5F_5_x5F_" class="st0" d="M-400.69,112.35c174.47,79.43,251.51,285.25,172.08,459.72s-285.25,251.51-459.72,172.08
	S-939.84,458.9-860.41,284.43S-575.16,32.92-400.69,112.35z"/>
<text><textPath  xlink:href="#SVGID_x5F_5_x5F_" startOffset="97.5953%">
<tspan  class="st1" style="font-family:'TimesNewRomanPSMT'; font-size:50.3629px; letter-spacing:250;">the second home cafe		</tspan></textPath>
</text>
<path id="SVGID_x5F_6_x5F_" class="st0" d="M-382.91,102.79c-190.17-86.58-414.51-2.6-501.09,187.57s-2.6,414.51,187.57,501.09
	s414.51,2.6,501.09-187.57S-192.74,189.37-382.91,102.79z"/>
<text><textPath  xlink:href="#SVGID_x5F_6_x5F_" startOffset="49.535%">
<tspan  class="st1" style="font-family:'TimesNewRomanPSMT'; font-size:54.9794px; letter-spacing:250;">a place to belong</tspan></textPath>
</text>
<g>
	<g>
		<path class="st1" d="M-625.43,614.32c6.99-3.94,25.19-8.36,34.76-34.35c2.13-5.77,5.87-16.83,10.24-21.17
			c6.17-6.13,12.02-8.16,20.93-11.05c5.44-1.76,11.46-0.02,15.03,4.45c6.16,7.71,10.89,24.83-13.79,59.2
			c-33.31,46.39-85.64,48.34-81.71,23.95C-638.86,628.42-630.24,617.04-625.43,614.32z"/>
		<path class="st1" d="M-651.28,633.64c2.52,3.05,7.42,2.01,8.52-1.79c2.38-8.23,8.56-21.03,24.49-28.5
			c17.71-8.3,22.23-24.67,23.36-33.39c0.75-5.75,3.34-11.11,7.48-15.16c5.15-5.04,13.34-10.45,25.34-11.65
			c2.5-0.25,3.55-3.32,1.71-5.02c-7.31-6.77-24.66-16.13-54.4,4.78C-651.71,568.86-668.29,613.09-651.28,633.64z"/>
	</g>
	<g>
		<path class="st1" d="M-493.01,575.06c6.99,3.94,25.19,8.36,34.76,34.35c2.13,5.77,5.87,16.83,10.24,21.17
			c6.17,6.13,12.02,8.16,20.93,11.05c5.44,1.76,11.46,0.02,15.03-4.45c6.16-7.71,10.89-24.83-13.79-59.2
			c-33.31-46.39-85.64-48.34-81.71-23.95C-506.44,560.96-497.83,572.35-493.01,575.06z"/>
		<path class="st1" d="M-518.86,555.75c2.52-3.05,7.42-2.01,8.52,1.79c2.38,8.23,8.56,21.03,24.49,28.5
			c17.71,8.3,22.23,24.67,23.36,33.39c0.75,5.75,3.34,11.11,7.48,15.16c5.15,5.04,13.34,10.45,25.34,11.65
			c2.5,0.25,3.55,3.32,1.71,5.02c-7.31,6.77-24.66,16.13-54.4-4.78C-519.3,620.52-535.87,576.3-518.86,555.75z"/>
	</g>
	<path class="st1" d="M-527.36,258.17c-3.18,15.51-6.32,31.01-8.9,46.55c-1.3,7.77-2.49,15.54-3.27,23.31
		c-0.23,1.94-0.3,3.88-0.48,5.82c-0.09,1.93-0.04,3.86-0.07,5.78c0.04,1.93,0.2,3.89,0.29,5.83c0.06,0.97,0.1,1.94,0.17,2.92
		l0.25,2.92c1.39,15.58,3.21,31.18,5.09,46.78c1.84,15.6,3.66,31.21,5.39,46.82l1.19,11.72c0.39,3.91,0.78,7.81,1.11,11.73
		c0.33,3.91,0.73,7.82,0.99,11.74c0.26,3.92,0.65,7.83,0.78,11.76c0.18,3.93,0.41,7.85,0.4,11.79l0.04,2.95
		c0.01,0.98,0.04,1.97-0.02,2.96l-0.26,5.95c-0.53,7.83-1.14,15.63-1.76,23.45c-2.42,31.26-6.33,31.13-4.81-0.17l1.17-23.47
		l0.14-5.79c0.05-0.96,0-1.94-0.03-2.91l-0.09-2.92c-0.07-3.88-0.37-7.78-0.62-11.68c-1.06-15.59-2.69-31.2-4.38-46.8
		c-3.2-31.22-7.23-62.4-9.12-93.76l-0.17-2.94c-0.05-0.98-0.05-1.97-0.08-2.95c-0.03-1.97-0.13-3.93-0.11-5.91
		c0.09-1.99,0.1-3.98,0.26-5.96c0.23-1.96,0.41-3.94,0.72-5.89c1.12-7.83,2.63-15.6,4.29-23.36
		C-535.82,288.95-531.88,273.52-527.36,258.17z"/>
	<path class="st1" d="M-500.92,290.57c-13.03-1.49-22.36-12.61-21.21-25.27c1.21-13.3,12.92-22.85,26.16-21.35
		c13.37,1.52,23.07,13.53,21.28,26.37C-476.42,282.76-488.4,292-500.92,290.57z"/>
	<path class="st1" d="M-531.05,260.04c-14.17-1.58-23.76-13.84-22.6-26.43c1.12-12.21,12.67-22.12,25.31-21.72
		c12.26,0.39,23.75,11.95,23.24,23.84c-0.1,2.31-1.41,5.09-3.08,6.72c-5.37,5.22-11.04,10.18-16.89,14.87
		C-527.2,259.02-530.17,259.66-531.05,260.04z"/>
	<path class="st1" d="M-557.7,230.95c1.58,17.62,11.87,27.91,28.54,32.01c-3.61,12.58-13.39,18.82-26.61,17.46
		c-12.07-1.24-21.43-10.25-22.58-21.76C-579.66,245.68-571.79,234.77-557.7,230.95z"/>
	<path class="st1" d="M-800.93,322.83c3.22-3.37,6.03-7.3,9.73-10.02c80.15-58.84,160.39-117.54,240.62-176.26
		c8.94-6.54,13.01-6.54,21.98,0.03c80.78,59.12,161.55,118.25,242.32,177.39c9.96,7.29,10.56,18.81,1.26,24.29
		c-6.12,3.61-11.6,1.93-16.98-2.03c-26.97-19.85-54.01-39.59-81.02-59.37c-50.87-37.26-101.77-74.48-152.55-111.85
		c-3.23-2.38-5.17-2.16-8.27,0.12c-77.41,56.82-154.9,113.52-232.39,170.25c-10.87,7.96-18.49,6.29-24.72-5.4
		C-800.93,327.59-800.93,325.21-800.93,322.83z"/>
	<path class="st1" d="M-544.71,439.1c-1.12-4.16-1.75-8.44-1.82-12.75c-0.62-40.74-19.68-66.34-23.92-71.55
		c-0.73-0.9-1.44-1.81-2.15-2.72c-36.7-46.98-123.74-51.26-123.74-51.26c14.47,12.91,17.13,39.2,17.58,45.81
		c0.14,2.06,0.31,4.12,0.6,6.16c7.59,54.96,64.41,68.62,89.77,72c17.87,2.38,34.29,11.17,46,24.87c0.52,0.6,0.79,0.95,0.79,0.95
		L-544.71,439.1z M-663.78,320.6c0,0,95.95,24.02,110.15,110.22C-553.63,430.82-575.79,358.82-663.78,320.6z"/>
	<path class="st1" d="M-536.56,499.99c-1.08-1.7-1.96-3.52-2.59-5.43c-5.95-18.08-18.01-26.84-20.63-28.57
		c-0.45-0.3-0.89-0.61-1.34-0.91c-22.9-15.84-62.3-5.63-62.3-5.63c8.25,3.74,13.1,15.09,14.21,17.97c0.35,0.9,0.71,1.79,1.12,2.66
		c11.03,23.45,38.27,21.63,50.05,19.6c8.3-1.43,16.84,0.21,23.97,4.69c0.31,0.2,0.49,0.31,0.49,0.31L-536.56,499.99z
		 M-606.14,463.73c0,0,46.12-2.65,64.45,33.81C-541.69,497.54-561.6,468.52-606.14,463.73z"/>
	<path class="st1" d="M-497.33,343.67c-22.67,27.91-22.87,72.84-20.77,88.56c0.45,3.4,0.09,6.86-1.06,10.09l-6.99,19.58l1.62,23.35
		c0,0,14.26-45.22,17.78-54.4s9.42-11.3,9.42-11.3s54.88-26.85,65.48-57.94c10.6-31.09,43.1-60.76,43.1-60.76
		C-439.62,300.14-473.45,314.27-497.33,343.67z M-512.7,430.82c7.77-50.87,80.55-106.69,80.55-106.69
		C-473.84,362.29-512.7,430.82-512.7,430.82z"/>
	<path class="st1" d="M-446.29,436.47c-46.63-2.12-66.41,71.36-66.41,71.36l-9.52,34.62c0,0,8.81-13.42,14.45-19.78
		c3.19-3.59,7.96-5.83,11.52-7.1c2.53-0.9,5.22-1.29,7.91-1.15c43.93,2.38,68.35-31.63,74.56-44.74
		c6.36-13.42,25.04-19.08,25.04-19.08S-399.66,438.59-446.29,436.47z M-505.08,509.25c20.16-62.11,102.6-58.64,102.6-58.64
		C-483.03,461.2-505.08,509.25-505.08,509.25z"/>
	<path class="st1" d="M-687.65,640.43c0,0,7.59,11.65,17.79,17.01h-47.74c0,0-63.59-7.32-66.41-76.58c-2.83-69.25,0-212.68,0-212.68
		l0,0c0-3.96,1.63-7.8,4.68-10.33c2.74-2.27,6.45-3.56,10.51,0.07c2.86,2.56,4.36,6.33,4.36,10.17v203.17
		c0,13.05,3.07,25.98,9.36,37.42C-745.39,626.37-725.95,645.12-687.65,640.43z"/>
	<path class="st1" d="M-389.34,640.43c0,0-7.59,11.65-17.79,17.01h47.74c0,0,63.59-7.32,66.41-76.58c2.83-69.25,0-212.68,0-212.68
		l0,0c0-3.96-1.63-7.8-4.68-10.33c-2.74-2.27-6.45-3.56-10.51,0.07c-2.86,2.56-4.36,6.33-4.36,10.17v203.17
		c0,13.05-3.07,25.98-9.36,37.42C-331.6,626.37-351.04,645.12-389.34,640.43z"/>
</g>
<circle class="st1" cx="-1542.5" cy="439.19" r="412.31"/>
<path id="SVGID_x5F_7_x5F_" class="st0" d="M-1189.46,453.37c-7.83,191.54-169.45,340.46-360.99,332.63
	c-191.54-7.83-340.46-169.45-332.63-360.99s169.45-340.46,360.99-332.63S-1181.63,261.83-1189.46,453.37z"/>
<text><textPath  xlink:href="#SVGID_x5F_7_x5F_" startOffset="97.5953%">
</textPath>
</text>
<path id="SVGID_x5F_8_x5F_" class="st0" d="M-1401.5,112.35c174.47,79.43,251.51,285.25,172.08,459.72
	c-79.43,174.47-285.25,251.51-459.72,172.08s-251.51-285.25-172.08-459.72C-1781.79,109.97-1575.97,32.92-1401.5,112.35z"/>
<text><textPath  xlink:href="#SVGID_x5F_8_x5F_" startOffset="97.5953%">
<tspan  style="font-family:'TimesNewRomanPSMT'; font-size:50.3629px; letter-spacing:250;">the second home cafe		</tspan></textPath>
</text>
<path id="SVGID_x5F_9_x5F_" class="st0" d="M-1383.72,102.79c-190.17-86.58-414.51-2.6-501.09,187.57
	c-86.58,190.17-2.6,414.51,187.57,501.09s414.51,2.6,501.09-187.57C-1109.57,413.71-1193.55,189.37-1383.72,102.79z"/>
<text><textPath  xlink:href="#SVGID_x5F_9_x5F_" startOffset="49.535%">
<tspan  style="font-family:'TimesNewRomanPSMT'; font-size:54.9794px; letter-spacing:250;">a place to belong</tspan></textPath>
</text>
<g>
	<g>
		<path d="M-1626.24,614.32c6.99-3.94,25.19-8.36,34.76-34.35c2.13-5.77,5.87-16.83,10.24-21.17c6.17-6.13,12.02-8.16,20.93-11.05
			c5.44-1.76,11.45-0.02,15.03,4.45c6.16,7.71,10.89,24.83-13.79,59.2c-33.31,46.39-85.64,48.34-81.71,23.95
			C-1639.67,628.42-1631.05,617.04-1626.24,614.32z"/>
		<path d="M-1652.09,633.64c2.52,3.05,7.42,2.01,8.52-1.79c2.38-8.23,8.56-21.03,24.49-28.5c17.71-8.3,22.23-24.67,23.36-33.39
			c0.75-5.75,3.34-11.11,7.48-15.16c5.15-5.04,13.34-10.45,25.34-11.65c2.5-0.25,3.55-3.32,1.71-5.02
			c-7.31-6.77-24.66-16.13-54.4,4.78C-1652.52,568.86-1669.1,613.09-1652.09,633.64z"/>
	</g>
	<g>
		<path d="M-1493.82,575.06c6.99,3.94,25.19,8.36,34.76,34.35c2.13,5.77,5.87,16.83,10.24,21.17c6.17,6.13,12.02,8.16,20.93,11.05
			c5.44,1.76,11.46,0.02,15.03-4.45c6.16-7.71,10.89-24.83-13.79-59.2c-33.31-46.39-85.64-48.34-81.71-23.95
			C-1507.25,560.96-1498.64,572.35-1493.82,575.06z"/>
		<path d="M-1519.67,555.75c2.52-3.05,7.42-2.01,8.52,1.79c2.38,8.23,8.56,21.03,24.49,28.5c17.71,8.3,22.23,24.67,23.36,33.39
			c0.75,5.75,3.34,11.11,7.48,15.16c5.15,5.04,13.34,10.45,25.34,11.65c2.5,0.25,3.55,3.32,1.71,5.02
			c-7.31,6.77-24.66,16.13-54.4-4.78C-1520.11,620.52-1536.68,576.3-1519.67,555.75z"/>
	</g>
	<path d="M-1528.17,258.17c-3.18,15.51-6.32,31.01-8.9,46.55c-1.3,7.77-2.49,15.54-3.27,23.31c-0.23,1.94-0.3,3.88-0.48,5.82
		c-0.09,1.93-0.04,3.86-0.07,5.78c0.04,1.93,0.2,3.89,0.29,5.83c0.06,0.97,0.1,1.94,0.17,2.92l0.25,2.92
		c1.39,15.58,3.21,31.18,5.09,46.78c1.84,15.6,3.66,31.21,5.39,46.82l1.19,11.72c0.39,3.91,0.78,7.81,1.11,11.73
		c0.33,3.91,0.73,7.82,0.99,11.74c0.26,3.92,0.65,7.83,0.78,11.76c0.18,3.93,0.41,7.85,0.4,11.79l0.04,2.95
		c0.01,0.98,0.04,1.97-0.02,2.96l-0.26,5.95c-0.53,7.83-1.14,15.63-1.76,23.45c-2.42,31.26-6.33,31.13-4.81-0.17l1.17-23.47
		l0.14-5.79c0.05-0.96,0-1.94-0.03-2.91l-0.09-2.92c-0.07-3.88-0.37-7.78-0.62-11.68c-1.06-15.59-2.69-31.2-4.38-46.8
		c-3.2-31.22-7.23-62.4-9.12-93.76l-0.17-2.94c-0.05-0.98-0.05-1.97-0.08-2.95c-0.03-1.97-0.13-3.93-0.11-5.91
		c0.09-1.99,0.1-3.98,0.26-5.96c0.23-1.96,0.41-3.94,0.72-5.89c1.12-7.83,2.63-15.6,4.29-23.36
		C-1536.63,288.95-1532.69,273.52-1528.17,258.17z"/>
	<path d="M-1501.73,290.57c-13.03-1.49-22.36-12.61-21.21-25.27c1.21-13.3,12.92-22.85,26.16-21.35
		c13.37,1.52,23.07,13.53,21.28,26.37C-1477.23,282.76-1489.21,292-1501.73,290.57z"/>
	<path d="M-1531.86,260.04c-14.17-1.58-23.76-13.84-22.6-26.43c1.12-12.21,12.67-22.12,25.31-21.72
		c12.26,0.39,23.75,11.95,23.24,23.84c-0.1,2.31-1.41,5.09-3.08,6.72c-5.37,5.22-11.04,10.18-16.89,14.87
		C-1528.01,259.02-1530.98,259.66-1531.86,260.04z"/>
	<path d="M-1558.51,230.95c1.58,17.62,11.87,27.91,28.54,32.01c-3.61,12.58-13.39,18.82-26.61,17.46
		c-12.07-1.24-21.43-10.25-22.58-21.76C-1580.47,245.68-1572.6,234.77-1558.51,230.95z"/>
	<path d="M-1801.74,322.83c3.22-3.37,6.03-7.3,9.73-10.02c80.15-58.84,160.39-117.54,240.62-176.26c8.94-6.54,13.01-6.54,21.98,0.03
		c80.78,59.12,161.55,118.25,242.32,177.39c9.96,7.29,10.56,18.81,1.26,24.29c-6.12,3.61-11.6,1.93-16.98-2.03
		c-26.97-19.85-54.01-39.59-81.02-59.37c-50.87-37.26-101.77-74.48-152.55-111.85c-3.23-2.38-5.17-2.16-8.27,0.12
		c-77.41,56.82-154.9,113.52-232.39,170.25c-10.87,7.96-18.49,6.29-24.72-5.4C-1801.74,327.59-1801.74,325.21-1801.74,322.83z"/>
	<path d="M-1545.52,439.1c-1.12-4.16-1.75-8.44-1.82-12.75c-0.62-40.74-19.68-66.34-23.92-71.55c-0.73-0.9-1.44-1.81-2.15-2.72
		c-36.7-46.98-123.74-51.26-123.74-51.26c14.47,12.91,17.13,39.2,17.58,45.81c0.14,2.06,0.31,4.12,0.6,6.16
		c7.59,54.96,64.41,68.62,89.77,72c17.87,2.38,34.29,11.17,46,24.87c0.52,0.6,0.79,0.95,0.79,0.95L-1545.52,439.1z M-1664.59,320.6
		c0,0,95.95,24.02,110.15,110.22C-1554.44,430.82-1576.6,358.82-1664.59,320.6z"/>
	<path d="M-1537.37,499.99c-1.08-1.7-1.96-3.52-2.59-5.43c-5.95-18.08-18.01-26.84-20.63-28.57c-0.45-0.3-0.89-0.61-1.34-0.91
		c-22.9-15.84-62.3-5.63-62.3-5.63c8.25,3.74,13.1,15.09,14.21,17.97c0.35,0.9,0.71,1.79,1.12,2.66
		c11.03,23.45,38.27,21.63,50.05,19.6c8.3-1.43,16.84,0.21,23.97,4.69c0.31,0.2,0.48,0.31,0.48,0.31L-1537.37,499.99z
		 M-1606.95,463.73c0,0,46.12-2.65,64.45,33.81C-1542.5,497.54-1562.41,468.52-1606.95,463.73z"/>
	<path d="M-1498.14,343.67c-22.67,27.91-22.87,72.84-20.77,88.56c0.45,3.4,0.09,6.86-1.06,10.09l-6.99,19.58l1.62,23.35
		c0,0,14.27-45.22,17.79-54.4c3.52-9.18,9.42-11.3,9.42-11.3s54.88-26.85,65.48-57.94s43.1-60.76,43.1-60.76
		C-1440.43,300.14-1474.26,314.27-1498.14,343.67z M-1513.51,430.82c7.77-50.87,80.55-106.69,80.55-106.69
		C-1474.65,362.29-1513.51,430.82-1513.51,430.82z"/>
	<path d="M-1447.1,436.47c-46.63-2.12-66.41,71.36-66.41,71.36l-9.52,34.62c0,0,8.81-13.42,14.45-19.78
		c3.19-3.59,7.96-5.83,11.52-7.1c2.53-0.9,5.22-1.29,7.91-1.15c43.93,2.38,68.35-31.63,74.56-44.74
		c6.36-13.42,25.04-19.08,25.04-19.08S-1400.47,438.59-1447.1,436.47z M-1505.89,509.25c20.16-62.11,102.6-58.64,102.6-58.64
		C-1483.84,461.2-1505.89,509.25-1505.89,509.25z"/>
	<path d="M-1688.46,640.43c0,0,7.59,11.65,17.79,17.01h-47.74c0,0-63.59-7.32-66.41-76.58s0-212.68,0-212.68l0,0
		c0-3.96,1.63-7.8,4.68-10.33c2.74-2.27,6.45-3.56,10.51,0.07c2.86,2.56,4.36,6.33,4.36,10.17v203.17c0,13.05,3.07,25.98,9.36,37.42
		C-1746.2,626.37-1726.76,645.12-1688.46,640.43z"/>
	<path d="M-1390.15,640.43c0,0-7.59,11.65-17.79,17.01h47.74c0,0,63.59-7.32,66.41-76.58s0-212.68,0-212.68l0,0
		c0-3.96-1.63-7.8-4.68-10.33c-2.74-2.27-6.45-3.56-10.51,0.07c-2.86,2.56-4.36,6.33-4.36,10.17v203.17
		c0,13.05-3.07,25.98-9.36,37.42C-1332.41,626.37-1351.85,645.12-1390.15,640.43z"/>
</g>
<circle class="st2" cx="-2594.42" cy="439.19" r="412.31"/>
<path id="SVGID_x5F_10_x5F_" class="st0" d="M-2241.38,453.37c-7.83,191.54-169.45,340.46-360.99,332.63
	c-191.54-7.83-340.46-169.45-332.63-360.99c7.83-191.54,169.45-340.46,360.99-332.63S-2233.55,261.83-2241.38,453.37z"/>
<text><textPath  xlink:href="#SVGID_x5F_10_x5F_" startOffset="97.5953%">
</textPath>
</text>
<path id="SVGID_x5F_11_x5F_" class="st0" d="M-2453.42,112.35c174.47,79.43,251.51,285.25,172.08,459.72
	c-79.43,174.47-285.25,251.51-459.72,172.08s-251.51-285.25-172.08-459.72C-2833.71,109.97-2627.89,32.92-2453.42,112.35z"/>
<text><textPath  xlink:href="#SVGID_x5F_11_x5F_" startOffset="97.5953%">
<tspan  class="st3" style="font-family:'TimesNewRomanPSMT'; font-size:50.3629px; letter-spacing:250;">the second home cafe		</tspan></textPath>
</text>
<path id="SVGID_x5F_12_x5F_" class="st0" d="M-2435.64,102.79c-190.17-86.58-414.51-2.6-501.09,187.57
	c-86.58,190.17-2.6,414.51,187.57,501.09s414.51,2.6,501.09-187.57C-2161.49,413.71-2245.47,189.37-2435.64,102.79z"/>
<text><textPath  xlink:href="#SVGID_x5F_12_x5F_" startOffset="49.535%">
<tspan  class="st3" style="font-family:'TimesNewRomanPSMT'; font-size:54.9794px; letter-spacing:250;">a place to belong</tspan></textPath>
</text>
<g>
	<g>
		<path class="st3" d="M-2678.16,614.32c6.99-3.94,25.19-8.36,34.76-34.35c2.13-5.77,5.87-16.83,10.24-21.17
			c6.17-6.13,12.02-8.16,20.93-11.05c5.44-1.76,11.45-0.02,15.03,4.45c6.16,7.71,10.89,24.83-13.79,59.2
			c-33.31,46.39-85.64,48.34-81.71,23.95C-2691.59,628.42-2682.97,617.04-2678.16,614.32z"/>
		<path class="st3" d="M-2704.01,633.64c2.52,3.05,7.42,2.01,8.52-1.79c2.38-8.23,8.56-21.03,24.49-28.5
			c17.71-8.3,22.23-24.67,23.36-33.39c0.75-5.75,3.34-11.11,7.48-15.16c5.15-5.04,13.34-10.45,25.34-11.65
			c2.5-0.25,3.55-3.32,1.71-5.02c-7.31-6.77-24.66-16.13-54.4,4.78C-2704.44,568.86-2721.02,613.09-2704.01,633.64z"/>
	</g>
	<g>
		<path class="st3" d="M-2545.74,575.06c6.99,3.94,25.19,8.36,34.76,34.35c2.13,5.77,5.87,16.83,10.24,21.17
			c6.17,6.13,12.02,8.16,20.93,11.05c5.44,1.76,11.46,0.02,15.03-4.45c6.16-7.71,10.89-24.83-13.79-59.2
			c-33.31-46.39-85.64-48.34-81.71-23.95C-2559.17,560.96-2550.56,572.35-2545.74,575.06z"/>
		<path class="st3" d="M-2571.59,555.75c2.52-3.05,7.42-2.01,8.52,1.79c2.38,8.23,8.56,21.03,24.49,28.5
			c17.71,8.3,22.23,24.67,23.36,33.39c0.75,5.75,3.34,11.11,7.48,15.16c5.15,5.04,13.34,10.45,25.34,11.65
			c2.5,0.25,3.55,3.32,1.71,5.02c-7.31,6.77-24.66,16.13-54.4-4.78C-2572.03,620.52-2588.6,576.3-2571.59,555.75z"/>
	</g>
	<path class="st4" d="M-2580.09,258.17c-3.18,15.51-6.32,31.01-8.9,46.55c-1.3,7.77-2.49,15.54-3.27,23.31
		c-0.23,1.94-0.3,3.88-0.48,5.82c-0.09,1.93-0.04,3.86-0.07,5.78c0.04,1.93,0.2,3.89,0.29,5.83c0.06,0.97,0.1,1.94,0.17,2.92
		l0.25,2.92c1.39,15.58,3.21,31.18,5.09,46.78c1.84,15.6,3.66,31.21,5.39,46.82l1.19,11.72c0.39,3.91,0.78,7.81,1.11,11.73
		c0.33,3.91,0.73,7.82,0.99,11.74c0.26,3.92,0.65,7.83,0.78,11.76c0.18,3.93,0.41,7.85,0.4,11.79l0.04,2.95
		c0.01,0.98,0.04,1.97-0.02,2.96l-0.26,5.95c-0.53,7.83-1.14,15.63-1.76,23.45c-2.42,31.26-6.33,31.13-4.81-0.17l1.17-23.47
		l0.14-5.79c0.05-0.96,0-1.94-0.03-2.91l-0.09-2.92c-0.07-3.88-0.37-7.78-0.62-11.68c-1.06-15.59-2.69-31.2-4.39-46.8
		c-3.2-31.22-7.23-62.4-9.12-93.76l-0.17-2.94c-0.05-0.98-0.05-1.97-0.08-2.95c-0.03-1.97-0.13-3.93-0.11-5.91
		c0.09-1.99,0.1-3.98,0.25-5.96c0.23-1.96,0.41-3.94,0.72-5.89c1.12-7.83,2.63-15.6,4.29-23.36
		C-2588.55,288.95-2584.61,273.52-2580.09,258.17z"/>
	<path class="st5" d="M-2553.65,290.57c-13.03-1.49-22.36-12.61-21.21-25.27c1.21-13.3,12.92-22.85,26.16-21.35
		c13.37,1.52,23.07,13.53,21.28,26.37C-2529.15,282.76-2541.13,292-2553.65,290.57z"/>
	<path class="st5" d="M-2583.78,260.04c-14.17-1.58-23.76-13.84-22.6-26.43c1.12-12.21,12.67-22.12,25.31-21.72
		c12.26,0.39,23.75,11.95,23.24,23.84c-0.1,2.31-1.41,5.09-3.08,6.72c-5.37,5.22-11.04,10.18-16.89,14.87
		C-2579.93,259.02-2582.9,259.66-2583.78,260.04z"/>
	<path class="st5" d="M-2610.43,230.95c1.58,17.62,11.87,27.91,28.54,32.01c-3.61,12.58-13.39,18.82-26.61,17.46
		c-12.07-1.24-21.43-10.25-22.58-21.76C-2632.39,245.68-2624.52,234.77-2610.43,230.95z"/>
	<path class="st3" d="M-2853.66,322.83c3.22-3.37,6.03-7.3,9.73-10.02c80.15-58.84,160.39-117.54,240.62-176.26
		c8.94-6.54,13.01-6.54,21.98,0.03c80.78,59.12,161.55,118.25,242.32,177.39c9.96,7.29,10.56,18.81,1.26,24.29
		c-6.12,3.61-11.6,1.93-16.98-2.03c-26.97-19.85-54.01-39.59-81.02-59.37c-50.87-37.26-101.77-74.48-152.55-111.85
		c-3.23-2.38-5.17-2.16-8.27,0.12c-77.41,56.82-154.9,113.52-232.39,170.25c-10.88,7.96-18.49,6.29-24.72-5.4
		C-2853.66,327.59-2853.66,325.21-2853.66,322.83z"/>
	<path class="st6" d="M-2597.44,439.1l3.11,11.5c0,0-0.28-0.34-0.79-0.95c-11.71-13.71-28.13-22.5-46-24.87
		c-25.36-3.37-82.19-17.04-89.77-72c-0.28-2.05-0.46-4.1-0.6-6.16c-0.45-6.61-3.11-32.89-17.58-45.81c0,0,87.05,4.28,123.74,51.26
		c0.71,0.91,1.42,1.82,2.15,2.72c4.25,5.21,23.3,30.81,23.92,71.55C-2599.2,430.66-2598.57,434.94-2597.44,439.1z"/>
	<path class="st1" d="M-2716.51,320.6c0,0,95.95,24.02,110.15,110.22C-2606.36,430.82-2628.52,358.82-2716.51,320.6z"/>
	<path class="st6" d="M-2589.29,499.99l2.99,4.7c0,0-0.17-0.11-0.49-0.31c-7.13-4.48-15.67-6.11-23.97-4.69
		c-11.78,2.03-39.01,3.84-50.05-19.6c-0.41-0.87-0.77-1.76-1.12-2.66c-1.12-2.88-5.97-14.23-14.21-17.97c0,0,39.4-10.21,62.3,5.63
		c0.44,0.31,0.89,0.62,1.34,0.91c2.62,1.73,14.68,10.49,20.63,28.57C-2591.25,496.47-2590.37,498.29-2589.29,499.99z"/>
	<path class="st1" d="M-2658.87,463.73c0,0,46.12-2.65,64.45,33.81C-2594.42,497.54-2614.33,468.52-2658.87,463.73z"/>
	<path class="st6" d="M-2578.88,461.9l6.99-19.58c1.15-3.23,1.51-6.69,1.06-10.09c-2.09-15.72-1.89-60.65,20.77-88.56
		c23.88-29.4,57.71-43.53,108.58-42.82c0,0-32.5,29.67-43.1,60.76s-65.48,57.94-65.48,57.94s-5.9,2.12-9.42,11.3
		c-3.52,9.19-17.79,54.4-17.79,54.4L-2578.88,461.9z"/>
	<path class="st1" d="M-2484.89,324.13c0,0-72.77,55.82-80.55,106.69C-2565.43,430.82-2526.57,362.29-2484.89,324.13z"/>
	<path class="st6" d="M-2574.95,542.46l9.52-34.62c0,0,19.78-73.48,66.41-71.36c46.63,2.12,57.54,14.13,57.54,14.13
		s-18.68,5.65-25.04,19.08c-6.21,13.11-30.63,47.13-74.56,44.74c-2.69-0.15-5.37,0.24-7.91,1.15c-3.55,1.27-8.33,3.51-11.52,7.1
		C-2566.14,529.03-2574.95,542.46-2574.95,542.46z"/>
	<path class="st1" d="M-2455.21,450.61c0,0-82.44-3.47-102.6,58.64C-2557.81,509.25-2535.76,461.2-2455.21,450.61z"/>
	<path class="st3" d="M-2740.38,640.43c0,0,7.59,11.65,17.78,17.01h-47.74c0,0-63.59-7.32-66.41-76.58
		c-2.83-69.25,0-212.68,0-212.68l0,0c0-3.96,1.63-7.8,4.68-10.33c2.74-2.27,6.45-3.56,10.51,0.07c2.86,2.56,4.36,6.33,4.36,10.17
		v203.17c0,13.05,3.07,25.98,9.36,37.42C-2798.12,626.37-2778.68,645.12-2740.38,640.43z"/>
	<path class="st3" d="M-2442.07,640.43c0,0-7.59,11.65-17.79,17.01h47.74c0,0,63.59-7.32,66.41-76.58s0-212.68,0-212.68l0,0
		c0-3.96-1.63-7.8-4.68-10.33c-2.74-2.27-6.45-3.56-10.51,0.07c-2.86,2.56-4.36,6.33-4.36,10.17v203.17
		c0,13.05-3.07,25.98-9.36,37.42C-2384.33,626.37-2403.77,645.12-2442.07,640.43z"/>
</g>
</svg>
